<svg width="16" height="34" viewBox="0 0 16 34" fill="none" xmlns="http://www.w3.org/2000/svg">
<path d="M3.89844 10.1406V5.57031C3.89844 4.82031 4.04688 4.13281 4.34375 3.50781C4.65625 2.88281 5.07812 2.34375 5.60938 1.89062C6.15625 1.42188 6.80469 1.0625 7.55469 0.8125C8.32031 0.5625 9.15625 0.4375 10.0625 0.4375C10.3281 0.4375 10.6172 0.453125 10.9297 0.484375C11.2578 0.5 11.6328 0.546875 12.0547 0.625C12.4766 0.703125 12.9453 0.828125 13.4609 1C13.9922 1.15625 14.6016 1.38281 15.2891 1.67969V5.99219C14.6016 5.75781 14.0078 5.57812 13.5078 5.45312C13.0078 5.3125 12.5859 5.21094 12.2422 5.14844C11.9141 5.08594 11.6562 5.05469 11.4688 5.05469C11.2969 5.03906 11.1875 5.03125 11.1406 5.03125C10.9375 5.03125 10.7344 5.07031 10.5312 5.14844C10.3281 5.21094 10.1406 5.3125 9.96875 5.45312C9.8125 5.59375 9.67969 5.76562 9.57031 5.96875C9.47656 6.17188 9.42969 6.41406 9.42969 6.69531V10.1406H13.7891V14.7578H9.42969V34H3.89844V14.7578H0.148438V10.1406H3.89844Z" fill="white"/>
</svg>
