<svg width="35" height="36" viewBox="0 0 35 36" fill="none" xmlns="http://www.w3.org/2000/svg">
<path d="M26.2441 8.93065V8.95085M1 9.94042C1 7.79797 1.85108 5.74327 3.36602 4.22833C4.88096 2.71339 6.93566 1.8623 9.07811 1.8623H25.2343C27.3768 1.8623 29.4315 2.71339 30.9464 4.22833C32.4614 5.74327 33.3124 7.79797 33.3124 9.94042V26.0966C33.3124 28.2391 32.4614 30.2938 30.9464 31.8087C29.4315 33.3237 27.3768 34.1747 25.2343 34.1747H9.07811C6.93566 34.1747 4.88096 33.3237 3.36602 31.8087C1.85108 30.2938 1 28.2391 1 26.0966V9.94042ZM11.0976 18.0185C11.0976 19.6254 11.736 21.1664 12.8722 22.3026C14.0084 23.4388 15.5494 24.0771 17.1562 24.0771C18.7631 24.0771 20.3041 23.4388 21.4403 22.3026C22.5765 21.1664 23.2148 19.6254 23.2148 18.0185C23.2148 16.4117 22.5765 14.8707 21.4403 13.7345C20.3041 12.5983 18.7631 11.9599 17.1562 11.9599C15.5494 11.9599 14.0084 12.5983 12.8722 13.7345C11.736 14.8707 11.0976 16.4117 11.0976 18.0185Z" stroke="white" stroke-width="2" stroke-linecap="round" stroke-linejoin="round"/>
</svg>
