<svg width="27" height="27" viewBox="0 0 27 27" fill="none" xmlns="http://www.w3.org/2000/svg">
<path d="M20.5312 6.46875V6.48438M1 7.25C1 5.5924 1.65848 4.00268 2.83058 2.83058C4.00268 1.65848 5.5924 1 7.25 1H19.75C21.4076 1 22.9973 1.65848 24.1694 2.83058C25.3415 4.00268 26 5.5924 26 7.25V19.75C26 21.4076 25.3415 22.9973 24.1694 24.1694C22.9973 25.3415 21.4076 26 19.75 26H7.25C5.5924 26 4.00268 25.3415 2.83058 24.1694C1.65848 22.9973 1 21.4076 1 19.75V7.25ZM8.8125 13.5C8.8125 14.7432 9.30636 15.9355 10.1854 16.8146C11.0645 17.6936 12.2568 18.1875 13.5 18.1875C14.7432 18.1875 15.9355 17.6936 16.8146 16.8146C17.6936 15.9355 18.1875 14.7432 18.1875 13.5C18.1875 12.2568 17.6936 11.0645 16.8146 10.1854C15.9355 9.30636 14.7432 8.8125 13.5 8.8125C12.2568 8.8125 11.0645 9.30636 10.1854 10.1854C9.30636 11.0645 8.8125 12.2568 8.8125 13.5Z" stroke="black" stroke-linecap="round" stroke-linejoin="round"/>
</svg>
